<?xml version="1.0" encoding="utf-8"?>
<!-- Svg Vector Icons : http://www.onlinewebfonts.com/icon -->
<!DOCTYPE svg PUBLIC "-//W3C//DTD SVG 1.1//EN" "http://www.w3.org/Graphics/SVG/1.1/DTD/svg11.dtd">
<svg version="1.1" xmlns="http://www.w3.org/2000/svg" xmlns:xlink="http://www.w3.org/1999/xlink" x="0px" y="0px" viewBox="0 0 1000 1000" enable-background="new 0 0 1000 1000" xml:space="preserve">
<metadata> Svg Vector Icons : http://www.onlinewebfonts.com/icon </metadata>
<g><g><path d="M987.4,144.8L898.1,500c0,4.3-0.9,8.3-2.4,11.9c-3.1,7.4-9,13.2-16.3,16.3c-3.7,1.6-7.7,2.4-11.9,2.4H285.6l24.5,122.5h526.8c16.9,0,30.6,13.7,30.6,30.6s-13.7,30.6-30.6,30.6H285.6c-16.9,0-30.6-13.7-30.6-30.6L138.6,101.9h-98C23.7,101.9,10,88.2,10,71.3c0-16.9,13.7-30.6,30.6-30.6h122.5c16.9,0,30.6,13.7,30.6,30.6l6.1,30.6h759.5c16.9,0,30.6,13.7,30.6,30.6C990,136.9,989,141,987.4,144.8L987.4,144.8z M273.4,469.4h104.1V163.1H212.1L273.4,469.4z M561.3,163.1H408.1v306.3h153.1V163.1z M745,163.1H591.9v306.3H745V163.1z M775.6,163.1v306.3h69l77.6-306.3H775.6z M346.9,775.6c50.7,0,91.9,41.2,91.9,91.9s-41.1,91.9-91.9,91.9S255,918.2,255,867.5S296.1,775.6,346.9,775.6z M346.9,898.1c16.9,0,30.6-13.7,30.6-30.6s-13.7-30.6-30.6-30.6s-30.6,13.7-30.6,30.6S329.9,898.1,346.9,898.1z M775.6,775.6c50.7,0,91.9,41.2,91.9,91.9s-41.1,91.9-91.9,91.9s-91.9-41.2-91.9-91.9S724.9,775.6,775.6,775.6z M775.6,898.1c16.9,0,30.6-13.7,30.6-30.6s-13.7-30.6-30.6-30.6S745,850.6,745,867.5S758.7,898.1,775.6,898.1z"/></g></g>
</svg>