<?xml version="1.0" encoding="utf-8"?>
<!-- Svg Vector Icons : http://www.onlinewebfonts.com/icon -->
<!DOCTYPE svg PUBLIC "-//W3C//DTD SVG 1.1//EN" "http://www.w3.org/Graphics/SVG/1.1/DTD/svg11.dtd">
<svg version="1.1" xmlns="http://www.w3.org/2000/svg" xmlns:xlink="http://www.w3.org/1999/xlink" x="0px" y="0px" viewBox="0 0 1000 1000" enable-background="new 0 0 1000 1000" xml:space="preserve">
<metadata> Svg Vector Icons : http://www.onlinewebfonts.com/icon </metadata>
<g><path d="M500,10C229.4,10,10,229.4,10,500c0,270.6,219.4,490,490,490c103.5,0,199.5-32.1,278.6-86.9c-0.2-0.1-0.3-0.1-0.5-0.2c8-6.5,13.2-16.4,13.2-27.5c0-19.5-15.8-35.3-35.3-35.3c-10.6,0-20.2,4.7-26.7,12.2c0-0.1,0-0.1-0.1-0.2C663.5,895,585,919.8,500.6,919.8c-232.2,0-420.4-188.2-420.4-420.5c0-232.2,188.2-420.4,420.4-420.4c232.2,0,420.4,188.2,420.4,420.4c0,95.4-31.8,183.3-85.3,253.8c-7.2,6.5-11.8,15.9-11.8,26.3c0,19.5,15.8,35.3,35.3,35.3c9.1,0,17.3-3.4,23.6-9c0,0,0,0,0,0.1c0.1-0.1,0.2-0.2,0.3-0.3c2.9-2.7,5.3-5.8,7.2-9.3C952.9,713.9,990,611.3,990,500C990,229.4,770.6,10,500,10L500,10z M252.8,638.6l225.8,135.8V508.3L252.8,372.5V638.6z M493.2,224.4L280.3,334.5l220.4,138.7L721,360L493.2,224.4z M525.5,507.1v266.2L745.9,660h0V393.9L525.5,507.1z"/></g>
</svg>